<?xml version="1.0" encoding="UTF-8"?>
<svg width="836px" height="836px" viewBox="0 0 836 836" version="1.1" xmlns="http://www.w3.org/2000/svg" xmlns:xlink="http://www.w3.org/1999/xlink">
    <g id="Page-1" stroke="none" stroke-width="1" fill="none" fill-rule="evenodd">
        <g id="noun_cart_2069651" fill="#fefefe">
            <g id="Group">
                <path d="M108.3,100.5 C117.8,134.2 127.3,167.9 136.8,201.6 C149.1,245.2 161.4,288.8 173.7,332.4 C185.6,374.4 197.4,416.5 209.3,458.5 C217.5,487.5 225.7,516.5 233.9,545.6 C235.6,551.6 237.3,557.7 239,563.7 C244.8,584.2 254.6,603.9 269.8,619.1 C285.2,634.7 305.6,644.4 327.7,644.6 C333,644.6 338.2,644.6 343.5,644.6 C370.2,644.6 396.8,644.7 423.5,644.7 C461,644.8 498.6,644.8 536.1,644.9 C571.3,645 606.4,645 641.6,645.1 C661.2,645.1 680.8,645.2 700.4,645.2 C701.3,645.2 702.3,645.2 703.2,645.2 C710.6,645.2 717,638.9 717,631.4 C717,623.9 710.7,617.7 703.2,617.6 C689.6,617.6 676.1,617.6 662.5,617.5 C630.3,617.5 598.2,617.4 566,617.4 C528.1,617.3 490.2,617.3 452.3,617.2 C421.5,617.2 390.8,617.1 360,617.1 C351.3,617.1 342.7,617.1 334,617.1 C332,617.1 330,617.1 328,617.1 C327.7,617.1 327.4,617.1 327.1,617.1 C325,617.1 323,617 320.9,616.8 C323.6,617 320,616.6 319.1,616.5 C317.5,616.2 315.9,615.8 314.3,615.3 C312.9,614.9 311.6,614.5 310.2,614 C309.6,613.8 309,613.6 308.5,613.3 C306.5,612.5 310.3,614.2 308.4,613.2 C305.6,611.8 302.8,610.4 300.1,608.7 C298.8,607.9 297.6,607 296.4,606.2 C295.1,605.3 296.4,606.2 296.6,606.4 C295.9,605.9 295.2,605.3 294.6,604.7 C292,602.5 289.6,600.2 287.3,597.8 C279.4,589.3 272.3,576.8 268.3,565.4 C266.3,559.8 264.8,554 263.2,548.3 C256.3,523.7 249.3,499.1 242.4,474.4 C231.2,434.6 219.9,394.7 208.7,354.9 C196.3,311 183.9,267.1 171.6,223.2 C161.2,186.4 150.9,149.7 140.5,112.9 C138.6,106.3 136.8,99.7 134.9,93.2 C132.9,86.1 125.2,81.6 118,83.6 C110.7,85.5 106.3,93.3 108.3,100.5 Z" id="Path"></path>
                <path d="M239.6,516.9 C268.3,516.9 297,516.9 325.6,516.9 C384.3,516.9 443,516.9 501.7,516.9 C550.6,516.9 599.5,516.9 648.5,516.9 C656.8,516.9 665.2,516.9 673.5,516.9 C684.3,516.9 695.2,516.9 706,516.9 C710.9,516.9 715.8,517.1 720.7,516.5 C733.5,515.1 745.2,509.9 754.7,501.2 C769.5,487.7 772.5,468.6 777,450.3 C783.1,425.7 789.1,401.1 795.2,376.5 C807.3,327.3 819.5,278 831.6,228.8 C833.2,222.4 834.8,216.2 835.2,209.5 C836.5,186.4 822.3,163.6 801.2,154.3 C787.9,148.4 774.6,149 760.5,149 C715.6,149 670.7,149 625.8,149 C565.8,149 505.9,149 445.9,149 C407.6,149 369.2,149 330.9,149 C329,149 327.1,149 325.2,149 C317.8,149 311.4,155.3 311.4,162.8 C311.4,170.3 317.7,176.6 325.2,176.6 C352.2,176.6 379.2,176.6 406.2,176.6 C463.5,176.6 520.8,176.6 578.1,176.6 C630.1,176.6 682.2,176.6 734.2,176.6 C747.1,176.6 760,176.6 772.9,176.6 C774,176.6 775.2,176.6 776.3,176.6 C776.5,176.6 776.7,176.6 776.9,176.6 C777.8,176.6 778.8,176.7 779.8,176.7 C780.2,176.7 782.5,177 780.3,176.7 C782.1,176.9 783.8,177.4 785.6,177.9 C786.9,178.3 788.1,178.7 789.4,179.2 C787.2,178.3 789.8,179.4 790.3,179.7 C792.4,180.9 794.5,182 796.4,183.4 C794.2,181.7 797.4,184.4 797.6,184.5 C798.2,185.1 798.8,185.7 799.4,186.3 C800.3,187.2 801.2,188.2 801.9,189.2 C800.3,187.1 803.1,191.2 803.4,191.7 C807.8,199.1 808.8,206.4 806.9,214.3 C798.1,252.5 788.2,290.4 778.8,328.5 C767.7,373.4 756.7,418.3 745.6,463.2 C745.4,464.1 745.2,465 744.9,466 C743.5,471.2 743.1,471.7 740.2,476.6 C738.2,480 741.7,475.2 739.1,478.1 C738.2,479.1 737.3,480.1 736.3,481.1 C735.7,481.7 735,482.3 734.3,482.9 C733.1,483.9 732.9,484.1 733.9,483.2 C733.2,483.7 732.4,484.2 731.7,484.7 C725.9,488.3 720.7,489.5 713.7,489.6 C707.7,489.6 701.8,489.6 695.8,489.6 C685.1,489.6 674.5,489.6 663.8,489.6 C622.2,489.6 580.7,489.6 539.1,489.6 C479.7,489.6 420.4,489.6 361,489.6 C322.4,489.6 283.8,489.6 245.2,489.6 C243.3,489.6 241.4,489.6 239.5,489.6 C232.1,489.6 225.7,495.9 225.7,503.4 C225.9,510.6 232.2,516.9 239.6,516.9 Z" id="Path"></path>
                <path d="M398.1,754.1 C398.1,755.7 398,757.4 397.9,759 C397.9,759.7 397.3,763.9 397.7,761.5 C397.1,764.8 396.4,768.1 395.3,771.3 C394.8,772.8 394.3,774.2 393.7,775.7 C394.5,773.7 392.9,777.3 392.6,777.8 C391.1,780.8 389.3,783.5 387.5,786.2 C387.5,786.3 386.2,788 387,786.9 C387.9,785.7 386.2,787.8 386,788.1 C385,789.3 384,790.4 382.9,791.5 C381,793.5 377.5,796.6 376.5,797.4 C377.1,796.9 374.2,799 373.6,799.4 C372.5,800.1 371.4,800.8 370.2,801.4 C368.7,802.3 367.1,803 365.5,803.8 C365.4,803.8 363.4,804.7 364.7,804.2 C366,803.7 362.5,805 362.6,805 C359.9,806 357,806.8 354.2,807.4 C353.6,807.5 349.5,808.2 351.8,807.9 C350,808.1 348.1,808.3 346.3,808.3 C343,808.4 339.8,808.3 336.5,808 C336.1,808 333.8,807.6 336.1,808 C335.4,807.9 334.8,807.8 334.1,807.6 C332.3,807.3 330.6,806.8 328.8,806.4 C322.3,804.6 319.8,803.5 313.4,799.4 C312.6,798.9 310,797.1 310.5,797.4 C311,797.8 308.5,795.8 307.8,795.2 C305.4,793 303.1,790.6 301,788.2 C300.6,787.7 300.2,787.2 299.8,786.7 C301.1,788.4 299.8,786.6 299.6,786.3 C298.8,785 297.9,783.8 297.1,782.5 C296.3,781.2 295.5,779.8 294.8,778.5 C294.5,777.9 292.6,773.7 293.4,775.8 C292.2,772.9 291.3,769.9 290.5,766.9 C290.2,765.6 289.9,764.3 289.6,762.9 C289,760.2 289.4,761.9 289.5,762.5 C289.3,761.4 289.3,760.2 289.2,759.1 C289,756.1 289,753 289.2,750 C289.2,749.4 289.9,744.5 289.5,746.8 C289.8,745 290.2,743.2 290.6,741.5 C292.4,734.3 293.2,732.4 296.8,726.4 C297.6,725.1 298.4,723.8 299.3,722.5 C299.5,722.2 301.1,720 300.2,721.2 C299.4,722.3 300.7,720.6 300.7,720.5 C302.8,718 305,715.6 307.5,713.4 C308.6,712.4 309.8,711.4 311,710.4 C309.2,711.8 312.5,709.4 313,709.1 C315.8,707.3 318.6,705.8 321.6,704.3 C321.9,704.1 324,703.3 322,704.1 C322.6,703.8 323.2,703.6 323.9,703.4 C325.4,702.9 326.8,702.4 328.3,701.9 C329.8,701.5 331.3,701.1 332.9,700.8 C333.6,700.7 334.2,700.5 334.9,700.4 C339,699.5 333.6,700.5 336,700.2 C339.2,699.8 342.5,699.7 345.8,699.8 C347.4,699.8 349,700 350.7,700.1 C350.8,700.1 353,700.4 351.6,700.2 C350.1,700 353.5,700.6 353.8,700.6 C357.3,701.3 360.7,702.4 364.1,703.6 C364.2,703.6 366.2,704.4 364.9,703.9 C363.5,703.3 366.6,704.7 366.9,704.8 C368.5,705.6 370,706.4 371.5,707.3 C373,708.2 374.4,709.2 375.9,710.2 C376.2,710.4 378,711.7 376.3,710.4 C377,710.9 377.7,711.5 378.3,712.1 C380.9,714.4 383.4,716.8 385.7,719.5 C386.3,720.2 386.8,720.8 387.4,721.5 C386.5,720.4 387.1,721.1 387.6,721.9 C388.6,723.4 389.6,724.8 390.5,726.3 C391.5,728 392.4,729.8 393.3,731.5 C393.6,732.1 393.9,732.7 394.1,733.3 C393.3,731.5 394.2,733.6 394.5,734.3 C395.7,737.7 396.7,741.1 397.4,744.7 C397.5,745.4 397.6,746 397.8,746.7 C397.4,744.4 397.9,747.4 397.9,747.8 C398,749.9 398.1,752 398.1,754.1 C398.2,761.5 404.4,767.9 411.9,767.9 C419.3,767.9 425.7,761.6 425.7,754.1 C425.4,719.5 403.8,689.3 371.6,677.1 C340.5,665.4 302.8,675.4 281.7,701 C259.6,727.8 255.6,766.2 273.9,796.3 C292,826 326.8,840.7 360.7,834.1 C398.5,826.8 425.4,791.9 425.8,754 C425.9,746.6 419.4,740.2 412,740.2 C404.4,740.3 398.2,746.6 398.1,754.1 Z" id="Path"></path>
                <path d="M738.5,754.1 C738.5,755.7 738.4,757.4 738.3,759 C738.3,759.7 737.7,763.9 738.1,761.5 C737.5,764.8 736.8,768.1 735.7,771.3 C735.2,772.8 734.7,774.2 734.1,775.7 C734.9,773.7 733.3,777.3 733,777.8 C731.5,780.8 729.7,783.5 727.9,786.2 C727.9,786.3 726.6,788 727.4,786.9 C728.3,785.7 726.6,787.8 726.4,788.1 C725.4,789.3 724.4,790.4 723.3,791.5 C721.4,793.5 717.9,796.6 716.9,797.4 C717.5,796.9 714.6,799 714,799.4 C712.9,800.1 711.8,800.8 710.6,801.4 C709.1,802.3 707.5,803 705.9,803.8 C705.8,803.8 703.8,804.7 705.1,804.2 C706.4,803.7 702.9,805 703,805 C700.3,806 697.4,806.8 694.6,807.4 C694,807.5 689.9,808.2 692.2,807.9 C690.4,808.1 688.5,808.3 686.7,808.3 C683.4,808.4 680.2,808.3 676.9,808 C676.5,808 674.2,807.6 676.5,808 C675.8,807.9 675.2,807.8 674.5,807.6 C672.7,807.3 671,806.8 669.2,806.4 C662.7,804.6 660.2,803.5 653.8,799.4 C653,798.9 650.4,797.1 650.9,797.4 C651.4,797.8 648.9,795.8 648.2,795.2 C645.8,793 643.5,790.6 641.4,788.2 C641,787.7 640.6,787.2 640.2,786.7 C641.5,788.4 640.2,786.6 640,786.3 C639.2,785 638.3,783.8 637.5,782.5 C636.7,781.2 635.9,779.8 635.2,778.5 C634.9,777.9 633,773.7 633.8,775.8 C632.6,772.9 631.7,769.9 630.9,766.9 C630.6,765.6 630.3,764.3 630,762.9 C629.4,760.2 629.8,761.9 629.9,762.5 C629.7,761.4 629.7,760.2 629.6,759.1 C629.4,756.1 629.4,753 629.6,750 C629.6,749.4 630.3,744.5 629.9,746.8 C630.2,745 630.6,743.2 631,741.5 C632.8,734.3 633.6,732.4 637.2,726.4 C638,725.1 638.8,723.8 639.7,722.5 C639.9,722.2 641.5,720 640.6,721.2 C639.8,722.3 641.1,720.6 641.1,720.5 C643.2,718 645.4,715.6 647.9,713.4 C649,712.4 650.2,711.4 651.4,710.4 C649.6,711.8 652.9,709.4 653.4,709.1 C656.2,707.3 659,705.8 662,704.3 C662.3,704.1 664.4,703.3 662.4,704.1 C663,703.8 663.6,703.6 664.3,703.4 C665.8,702.9 667.2,702.4 668.7,701.9 C670.2,701.5 671.7,701.1 673.3,700.8 C674,700.7 674.6,700.5 675.3,700.4 C679.4,699.5 674,700.5 676.4,700.2 C679.6,699.8 682.9,699.7 686.2,699.8 C687.8,699.8 689.4,700 691.1,700.1 C691.2,700.1 693.4,700.4 692,700.2 C690.5,700 693.9,700.6 694.2,700.6 C697.7,701.3 701.1,702.4 704.5,703.6 C704.6,703.6 706.6,704.4 705.3,703.9 C703.9,703.3 707,704.7 707.3,704.8 C708.9,705.6 710.4,706.4 711.9,707.3 C713.4,708.2 714.8,709.2 716.3,710.2 C716.6,710.4 718.4,711.7 716.7,710.4 C717.4,710.9 718.1,711.5 718.7,712.1 C721.3,714.4 723.8,716.8 726.1,719.5 C726.7,720.2 727.2,720.8 727.8,721.5 C726.9,720.4 727.5,721.1 728,721.9 C729,723.4 730,724.8 730.9,726.3 C731.9,728 732.8,729.8 733.7,731.5 C734,732.1 734.3,732.7 734.5,733.3 C733.7,731.5 734.6,733.6 734.9,734.3 C736.1,737.7 737.1,741.1 737.8,744.7 C737.9,745.4 738,746 738.2,746.7 C737.8,744.4 738.3,747.4 738.3,747.8 C738.4,749.9 738.5,752 738.5,754.1 C738.6,761.5 744.8,767.9 752.3,767.9 C759.7,767.9 766.1,761.6 766.1,754.1 C765.8,719.5 744.2,689.3 712,677.1 C680.9,665.4 643.2,675.4 622.1,701 C600,727.8 596,766.2 614.3,796.3 C632.4,826 667.2,840.7 701.1,834.1 C738.9,826.8 765.8,791.9 766.2,754 C766.3,746.6 759.8,740.2 752.4,740.2 C744.8,740.3 738.6,746.6 738.5,754.1 Z" id="Path"></path>
                <path d="M133.4,88 C128.6,58.9 114.6,31.3 89.3,15 C65.9,-0.1 37.4,-2 10.6,2.1 C3.3,3.2 -0.8,12.5 1,19 C3.2,26.9 10.5,29.7 17.9,28.6 C18.7,28.5 19.6,28.3 20.4,28.2 C18.8,28.4 18.8,28.4 20.4,28.2 C22,28.1 23.7,27.9 25.3,27.8 C28.1,27.6 30.9,27.5 33.8,27.5 C36.6,27.5 39.3,27.6 42.1,27.8 C43.6,27.9 45.2,28.1 46.7,28.2 C44.2,27.9 46.4,28.2 47.6,28.4 C53.1,29.3 58.6,30.7 63.9,32.7 C64.6,33 67.7,34.3 64.7,33 C66,33.6 67.4,34.2 68.7,34.9 C71,36.1 73.2,37.3 75.4,38.7 C76.5,39.4 77.5,40.2 78.6,40.9 C81.5,42.9 77.8,40 79.8,41.8 C81.8,43.6 83.8,45.3 85.6,47.2 C86.7,48.3 87.7,49.4 88.7,50.6 C89,50.9 91.5,54.1 90.6,52.9 C89.7,51.7 92.1,55 92.3,55.4 C93.2,56.7 94.1,58.1 94.9,59.5 C101.2,70.2 104.6,81.3 106.9,95.3 C108.1,102.6 117.2,106.7 123.8,104.9 C131.6,102.8 134.7,95.4 133.4,88 Z" id="Path"></path>
            </g>
        </g>
    </g>
</svg>